<mxfile host="app.diagrams.net" agent="Mozilla/5.0 (Windows NT 10.0; Win64; x64) AppleWebKit/537.36 (KHTML, like Gecko) Chrome/134.0.0.0 Safari/537.36" version="26.1.1">
  <diagram name="Page-1" id="a7904f86-f2b4-8e86-fa97-74104820619b">
    <mxGraphModel dx="1894" dy="446" grid="1" gridSize="10" guides="1" tooltips="1" connect="1" arrows="1" fold="1" page="1" pageScale="1" pageWidth="1100" pageHeight="850" background="#ffffff" math="0" shadow="0">
      <root>
        <mxCell id="0" />
        <mxCell id="1" parent="0" />
        <mxCell id="RV1BSSx_zwW7jQQuxkVw-16" style="edgeStyle=none;curved=1;rounded=0;orthogonalLoop=1;jettySize=auto;html=1;exitX=0.5;exitY=1;exitDx=0;exitDy=0;fontSize=12;startSize=8;endSize=8;" parent="1" edge="1">
          <mxGeometry relative="1" as="geometry">
            <mxPoint x="-634.9999999999995" y="970" as="sourcePoint" />
            <mxPoint x="-634.9999999999995" y="970" as="targetPoint" />
          </mxGeometry>
        </mxCell>
        <mxCell id="NwuFL7YnjegX-JYwaqcO-8" value="&lt;b style=&quot;text-wrap-mode: nowrap;&quot;&gt;RoomType&lt;/b&gt;" style="swimlane;fontStyle=1;align=center;verticalAlign=top;childLayout=stackLayout;horizontal=1;startSize=26;horizontalStack=0;resizeParent=1;resizeParentMax=0;resizeLast=0;collapsible=1;marginBottom=0;whiteSpace=wrap;html=1;" parent="1" vertex="1">
          <mxGeometry x="-325" y="20" width="160" height="120" as="geometry" />
        </mxCell>
        <mxCell id="NwuFL7YnjegX-JYwaqcO-9" value="&lt;p style=&quot;text-wrap-mode: nowrap; margin: 0px 0px 0px 8px;&quot;&gt;-roomTypeID: int&amp;nbsp;&lt;br&gt;-typeName: string&lt;br&gt;&lt;/p&gt;&lt;p style=&quot;text-wrap-mode: nowrap; margin: 0px 0px 0px 8px;&quot;&gt;-describe: string&lt;/p&gt;" style="text;strokeColor=none;fillColor=none;align=left;verticalAlign=top;spacingLeft=4;spacingRight=4;overflow=hidden;rotatable=0;points=[[0,0.5],[1,0.5]];portConstraint=eastwest;whiteSpace=wrap;html=1;" parent="NwuFL7YnjegX-JYwaqcO-8" vertex="1">
          <mxGeometry y="26" width="160" height="54" as="geometry" />
        </mxCell>
        <mxCell id="NwuFL7YnjegX-JYwaqcO-10" value="" style="line;strokeWidth=1;fillColor=none;align=left;verticalAlign=middle;spacingTop=-1;spacingLeft=3;spacingRight=3;rotatable=0;labelPosition=right;points=[];portConstraint=eastwest;strokeColor=inherit;" parent="NwuFL7YnjegX-JYwaqcO-8" vertex="1">
          <mxGeometry y="80" width="160" height="8" as="geometry" />
        </mxCell>
        <mxCell id="NwuFL7YnjegX-JYwaqcO-11" value="+GetRoomType()" style="text;strokeColor=none;fillColor=none;align=left;verticalAlign=top;spacingLeft=4;spacingRight=4;overflow=hidden;rotatable=0;points=[[0,0.5],[1,0.5]];portConstraint=eastwest;whiteSpace=wrap;html=1;" parent="NwuFL7YnjegX-JYwaqcO-8" vertex="1">
          <mxGeometry y="88" width="160" height="32" as="geometry" />
        </mxCell>
        <mxCell id="NwuFL7YnjegX-JYwaqcO-12" value="&lt;b style=&quot;text-wrap-mode: nowrap;&quot;&gt;Room&lt;/b&gt;" style="swimlane;fontStyle=1;align=center;verticalAlign=top;childLayout=stackLayout;horizontal=1;startSize=26;horizontalStack=0;resizeParent=1;resizeParentMax=0;resizeLast=0;collapsible=1;marginBottom=0;whiteSpace=wrap;html=1;" parent="1" vertex="1">
          <mxGeometry x="10" y="170" width="160" height="160" as="geometry" />
        </mxCell>
        <mxCell id="NwuFL7YnjegX-JYwaqcO-13" value="&lt;p style=&quot;text-wrap-mode: nowrap; margin: 0px 0px 0px 8px;&quot;&gt;-roomID:int&lt;br&gt;-roomType: RoomType&lt;/p&gt;&lt;p style=&quot;text-wrap-mode: nowrap; margin: 0px 0px 0px 8px;&quot;&gt;-roomNumber: int&lt;/p&gt;&lt;p style=&quot;text-wrap-mode: nowrap; margin: 0px 0px 0px 8px;&quot;&gt;-price: float&lt;/p&gt;&lt;p style=&quot;text-wrap-mode: nowrap; margin: 0px 0px 0px 8px;&quot;&gt;-status: RoomStatus&lt;/p&gt;&lt;p style=&quot;text-wrap-mode: nowrap; margin: 0px 0px 0px 8px;&quot;&gt;-describe: string&lt;/p&gt;" style="text;strokeColor=none;fillColor=none;align=left;verticalAlign=top;spacingLeft=4;spacingRight=4;overflow=hidden;rotatable=0;points=[[0,0.5],[1,0.5]];portConstraint=eastwest;whiteSpace=wrap;html=1;" parent="NwuFL7YnjegX-JYwaqcO-12" vertex="1">
          <mxGeometry y="26" width="160" height="94" as="geometry" />
        </mxCell>
        <mxCell id="NwuFL7YnjegX-JYwaqcO-14" value="" style="line;strokeWidth=1;fillColor=none;align=left;verticalAlign=middle;spacingTop=-1;spacingLeft=3;spacingRight=3;rotatable=0;labelPosition=right;points=[];portConstraint=eastwest;strokeColor=inherit;" parent="NwuFL7YnjegX-JYwaqcO-12" vertex="1">
          <mxGeometry y="120" width="160" height="8" as="geometry" />
        </mxCell>
        <mxCell id="NwuFL7YnjegX-JYwaqcO-15" value="+GetStatus()" style="text;strokeColor=none;fillColor=none;align=left;verticalAlign=top;spacingLeft=4;spacingRight=4;overflow=hidden;rotatable=0;points=[[0,0.5],[1,0.5]];portConstraint=eastwest;whiteSpace=wrap;html=1;" parent="NwuFL7YnjegX-JYwaqcO-12" vertex="1">
          <mxGeometry y="128" width="160" height="32" as="geometry" />
        </mxCell>
        <mxCell id="NwuFL7YnjegX-JYwaqcO-16" value="&lt;span style=&quot;text-wrap-mode: nowrap;&quot;&gt;User&lt;/span&gt;" style="swimlane;fontStyle=1;align=center;verticalAlign=top;childLayout=stackLayout;horizontal=1;startSize=26;horizontalStack=0;resizeParent=1;resizeParentMax=0;resizeLast=0;collapsible=1;marginBottom=0;whiteSpace=wrap;html=1;" parent="1" vertex="1">
          <mxGeometry x="-590" y="448" width="160" height="120" as="geometry" />
        </mxCell>
        <mxCell id="NwuFL7YnjegX-JYwaqcO-17" value="&lt;p style=&quot;text-wrap-mode: nowrap; margin: 0px 0px 0px 8px;&quot;&gt;-loginID: string&lt;/p&gt;&lt;p style=&quot;text-wrap-mode: nowrap; margin: 0px 0px 0px 8px;&quot;&gt;-passWord:string&lt;/p&gt;&lt;p style=&quot;text-wrap-mode: nowrap; margin: 0px 0px 0px 8px;&quot;&gt;-eMail: string&lt;/p&gt;" style="text;strokeColor=none;fillColor=none;align=left;verticalAlign=top;spacingLeft=4;spacingRight=4;overflow=hidden;rotatable=0;points=[[0,0.5],[1,0.5]];portConstraint=eastwest;whiteSpace=wrap;html=1;" parent="NwuFL7YnjegX-JYwaqcO-16" vertex="1">
          <mxGeometry y="26" width="160" height="54" as="geometry" />
        </mxCell>
        <mxCell id="NwuFL7YnjegX-JYwaqcO-18" value="" style="line;strokeWidth=1;fillColor=none;align=left;verticalAlign=middle;spacingTop=-1;spacingLeft=3;spacingRight=3;rotatable=0;labelPosition=right;points=[];portConstraint=eastwest;strokeColor=inherit;" parent="NwuFL7YnjegX-JYwaqcO-16" vertex="1">
          <mxGeometry y="80" width="160" height="8" as="geometry" />
        </mxCell>
        <mxCell id="NwuFL7YnjegX-JYwaqcO-19" value="+GetUser()" style="text;strokeColor=none;fillColor=none;align=left;verticalAlign=top;spacingLeft=4;spacingRight=4;overflow=hidden;rotatable=0;points=[[0,0.5],[1,0.5]];portConstraint=eastwest;whiteSpace=wrap;html=1;" parent="NwuFL7YnjegX-JYwaqcO-16" vertex="1">
          <mxGeometry y="88" width="160" height="32" as="geometry" />
        </mxCell>
        <mxCell id="NwuFL7YnjegX-JYwaqcO-20" value="&lt;span style=&quot;text-wrap-mode: nowrap;&quot;&gt;Customer&lt;/span&gt;" style="swimlane;fontStyle=1;align=center;verticalAlign=top;childLayout=stackLayout;horizontal=1;startSize=26;horizontalStack=0;resizeParent=1;resizeParentMax=0;resizeLast=0;collapsible=1;marginBottom=0;whiteSpace=wrap;html=1;" parent="1" vertex="1">
          <mxGeometry x="-820" y="413" width="165" height="58" as="geometry" />
        </mxCell>
        <mxCell id="NwuFL7YnjegX-JYwaqcO-21" value="&lt;p style=&quot;text-wrap-mode: nowrap; margin: 0px 0px 0px 8px;&quot;&gt;-interest: Room[]&lt;/p&gt;&lt;p style=&quot;text-wrap-mode: nowrap; margin: 0px 0px 0px 8px;&quot;&gt;&lt;br&gt;&lt;/p&gt;" style="text;strokeColor=none;fillColor=none;align=left;verticalAlign=top;spacingLeft=4;spacingRight=4;overflow=hidden;rotatable=0;points=[[0,0.5],[1,0.5]];portConstraint=eastwest;whiteSpace=wrap;html=1;" parent="NwuFL7YnjegX-JYwaqcO-20" vertex="1">
          <mxGeometry y="26" width="165" height="24" as="geometry" />
        </mxCell>
        <mxCell id="NwuFL7YnjegX-JYwaqcO-22" value="" style="line;strokeWidth=1;fillColor=none;align=left;verticalAlign=middle;spacingTop=-1;spacingLeft=3;spacingRight=3;rotatable=0;labelPosition=right;points=[];portConstraint=eastwest;strokeColor=inherit;" parent="NwuFL7YnjegX-JYwaqcO-20" vertex="1">
          <mxGeometry y="50" width="165" height="8" as="geometry" />
        </mxCell>
        <mxCell id="NwuFL7YnjegX-JYwaqcO-24" value="&lt;span style=&quot;text-wrap-mode: nowrap;&quot;&gt;Admin&lt;/span&gt;" style="swimlane;fontStyle=1;align=center;verticalAlign=top;childLayout=stackLayout;horizontal=1;startSize=26;horizontalStack=0;resizeParent=1;resizeParentMax=0;resizeLast=0;collapsible=1;marginBottom=0;whiteSpace=wrap;html=1;" parent="1" vertex="1">
          <mxGeometry x="-815" y="498" width="160" height="90" as="geometry" />
        </mxCell>
        <mxCell id="NwuFL7YnjegX-JYwaqcO-25" value="&lt;p style=&quot;text-wrap-mode: nowrap; margin: 0px 0px 0px 8px;&quot;&gt;&lt;br&gt;&lt;/p&gt;" style="text;strokeColor=none;fillColor=none;align=left;verticalAlign=top;spacingLeft=4;spacingRight=4;overflow=hidden;rotatable=0;points=[[0,0.5],[1,0.5]];portConstraint=eastwest;whiteSpace=wrap;html=1;" parent="NwuFL7YnjegX-JYwaqcO-24" vertex="1">
          <mxGeometry y="26" width="160" height="4" as="geometry" />
        </mxCell>
        <mxCell id="NwuFL7YnjegX-JYwaqcO-26" value="" style="line;strokeWidth=1;fillColor=none;align=left;verticalAlign=middle;spacingTop=-1;spacingLeft=3;spacingRight=3;rotatable=0;labelPosition=right;points=[];portConstraint=eastwest;strokeColor=inherit;" parent="NwuFL7YnjegX-JYwaqcO-24" vertex="1">
          <mxGeometry y="30" width="160" height="8" as="geometry" />
        </mxCell>
        <mxCell id="NwuFL7YnjegX-JYwaqcO-27" value="+AddRoom()&lt;div&gt;+EditRoom()&lt;br&gt;&lt;/div&gt;&lt;div&gt;+DeleteRoom()&lt;/div&gt;" style="text;strokeColor=none;fillColor=none;align=left;verticalAlign=top;spacingLeft=4;spacingRight=4;overflow=hidden;rotatable=0;points=[[0,0.5],[1,0.5]];portConstraint=eastwest;whiteSpace=wrap;html=1;" parent="NwuFL7YnjegX-JYwaqcO-24" vertex="1">
          <mxGeometry y="38" width="160" height="52" as="geometry" />
        </mxCell>
        <mxCell id="NwuFL7YnjegX-JYwaqcO-29" value="&lt;b style=&quot;text-wrap-mode: nowrap;&quot;&gt;UserAccount&lt;/b&gt;&lt;div&gt;&lt;b style=&quot;text-wrap-mode: nowrap;&quot;&gt;&lt;br&gt;&lt;/b&gt;&lt;/div&gt;" style="swimlane;fontStyle=1;align=center;verticalAlign=top;childLayout=stackLayout;horizontal=1;startSize=26;horizontalStack=0;resizeParent=1;resizeParentMax=0;resizeLast=0;collapsible=1;marginBottom=0;whiteSpace=wrap;html=1;" parent="1" vertex="1">
          <mxGeometry x="-340" y="428" width="190" height="160" as="geometry" />
        </mxCell>
        <mxCell id="NwuFL7YnjegX-JYwaqcO-30" value="&lt;p style=&quot;text-wrap-mode: nowrap; margin: 0px 0px 0px 8px;&quot;&gt;-idAccount:string&lt;/p&gt;&lt;p style=&quot;text-wrap-mode: nowrap; margin: 0px 0px 0px 8px;&quot;&gt;-fullName: string&lt;br&gt;&lt;/p&gt;&lt;p style=&quot;text-wrap-mode: nowrap; margin: 0px 0px 0px 8px;&quot;&gt;-phoneNumber: string&lt;/p&gt;&lt;p style=&quot;text-wrap-mode: nowrap; margin: 0px 0px 0px 8px;&quot;&gt;-gender: bool&lt;/p&gt;&lt;p style=&quot;text-wrap-mode: nowrap; margin: 0px 0px 0px 8px;&quot;&gt;-&lt;span style=&quot;background-color: transparent; color: light-dark(rgb(0, 0, 0), rgb(255, 255, 255));&quot;&gt;historyBooking: BookingRoom[]&lt;/span&gt;&lt;/p&gt;&lt;p style=&quot;text-wrap-mode: nowrap; margin: 0px 0px 0px 8px;&quot;&gt;&lt;span style=&quot;background-color: transparent; color: light-dark(rgb(0, 0, 0), rgb(255, 255, 255));&quot;&gt;-Invoice:Invoice[]&lt;/span&gt;&lt;/p&gt;" style="text;strokeColor=none;fillColor=none;align=left;verticalAlign=top;spacingLeft=4;spacingRight=4;overflow=hidden;rotatable=0;points=[[0,0.5],[1,0.5]];portConstraint=eastwest;whiteSpace=wrap;html=1;" parent="NwuFL7YnjegX-JYwaqcO-29" vertex="1">
          <mxGeometry y="26" width="190" height="94" as="geometry" />
        </mxCell>
        <mxCell id="NwuFL7YnjegX-JYwaqcO-31" value="" style="line;strokeWidth=1;fillColor=none;align=left;verticalAlign=middle;spacingTop=-1;spacingLeft=3;spacingRight=3;rotatable=0;labelPosition=right;points=[];portConstraint=eastwest;strokeColor=inherit;" parent="NwuFL7YnjegX-JYwaqcO-29" vertex="1">
          <mxGeometry y="120" width="190" height="8" as="geometry" />
        </mxCell>
        <mxCell id="NwuFL7YnjegX-JYwaqcO-32" value="+EditInfo()" style="text;strokeColor=none;fillColor=none;align=left;verticalAlign=top;spacingLeft=4;spacingRight=4;overflow=hidden;rotatable=0;points=[[0,0.5],[1,0.5]];portConstraint=eastwest;whiteSpace=wrap;html=1;" parent="NwuFL7YnjegX-JYwaqcO-29" vertex="1">
          <mxGeometry y="128" width="190" height="32" as="geometry" />
        </mxCell>
        <mxCell id="NwuFL7YnjegX-JYwaqcO-33" value="&lt;b style=&quot;text-wrap-mode: nowrap;&quot;&gt;BookingRoom&lt;/b&gt;" style="swimlane;fontStyle=1;align=center;verticalAlign=top;childLayout=stackLayout;horizontal=1;startSize=26;horizontalStack=0;resizeParent=1;resizeParentMax=0;resizeLast=0;collapsible=1;marginBottom=0;whiteSpace=wrap;html=1;" parent="1" vertex="1">
          <mxGeometry x="10" y="410" width="160" height="170" as="geometry" />
        </mxCell>
        <mxCell id="NwuFL7YnjegX-JYwaqcO-34" value="&lt;p style=&quot;text-wrap-mode: nowrap; margin: 0px 0px 0px 8px;&quot;&gt;-bookingRoomID: int&amp;nbsp;&lt;/p&gt;&lt;p style=&quot;text-wrap-mode: nowrap; margin: 0px 0px 0px 8px;&quot;&gt;-customerNumbers: int&amp;nbsp;&lt;br&gt;-checkInDate: Date&lt;/p&gt;&lt;p style=&quot;text-wrap-mode: nowrap; margin: 0px 0px 0px 8px;&quot;&gt;&lt;span style=&quot;background-color: initial;&quot;&gt;-checkOutDate: Date&lt;/span&gt;&lt;br&gt;-status: BookingStatus&lt;/p&gt;&lt;p style=&quot;text-wrap-mode: nowrap; margin: 0px 0px 0px 8px;&quot;&gt;-roomList:Room[]&lt;/p&gt;&lt;p style=&quot;text-wrap-mode: nowrap; margin: 0px 0px 0px 8px;&quot;&gt;-serviceList:Service[]&lt;/p&gt;" style="text;strokeColor=none;fillColor=none;align=left;verticalAlign=top;spacingLeft=4;spacingRight=4;overflow=hidden;rotatable=0;points=[[0,0.5],[1,0.5]];portConstraint=eastwest;whiteSpace=wrap;html=1;" parent="NwuFL7YnjegX-JYwaqcO-33" vertex="1">
          <mxGeometry y="26" width="160" height="104" as="geometry" />
        </mxCell>
        <mxCell id="NwuFL7YnjegX-JYwaqcO-35" value="" style="line;strokeWidth=1;fillColor=none;align=left;verticalAlign=middle;spacingTop=-1;spacingLeft=3;spacingRight=3;rotatable=0;labelPosition=right;points=[];portConstraint=eastwest;strokeColor=inherit;" parent="NwuFL7YnjegX-JYwaqcO-33" vertex="1">
          <mxGeometry y="130" width="160" height="8" as="geometry" />
        </mxCell>
        <mxCell id="NwuFL7YnjegX-JYwaqcO-36" value="+GetStatus()" style="text;strokeColor=none;fillColor=none;align=left;verticalAlign=top;spacingLeft=4;spacingRight=4;overflow=hidden;rotatable=0;points=[[0,0.5],[1,0.5]];portConstraint=eastwest;whiteSpace=wrap;html=1;" parent="NwuFL7YnjegX-JYwaqcO-33" vertex="1">
          <mxGeometry y="138" width="160" height="32" as="geometry" />
        </mxCell>
        <mxCell id="NwuFL7YnjegX-JYwaqcO-38" value="&lt;b style=&quot;text-wrap-mode: nowrap;&quot;&gt;&amp;lt;&amp;lt;enumeration&amp;gt;&amp;gt;&lt;br&gt;RoomStatus&lt;/b&gt;" style="swimlane;fontStyle=1;align=center;verticalAlign=top;childLayout=stackLayout;horizontal=1;startSize=40;horizontalStack=0;resizeParent=1;resizeParentMax=0;resizeLast=0;collapsible=1;marginBottom=0;whiteSpace=wrap;html=1;" parent="1" vertex="1">
          <mxGeometry x="290" y="190" width="160" height="108" as="geometry" />
        </mxCell>
        <mxCell id="NwuFL7YnjegX-JYwaqcO-39" value="&lt;p style=&quot;text-wrap-mode: nowrap; margin: 0px 0px 0px 8px;&quot;&gt;+inUse&lt;/p&gt;&lt;p style=&quot;text-wrap-mode: nowrap; margin: 0px 0px 0px 8px;&quot;&gt;+noUse&lt;/p&gt;&lt;p style=&quot;text-wrap-mode: nowrap; margin: 0px 0px 0px 8px;&quot;&gt;+mainTain&lt;/p&gt;" style="text;strokeColor=none;fillColor=none;align=left;verticalAlign=top;spacingLeft=4;spacingRight=4;overflow=hidden;rotatable=0;points=[[0,0.5],[1,0.5]];portConstraint=eastwest;whiteSpace=wrap;html=1;" parent="NwuFL7YnjegX-JYwaqcO-38" vertex="1">
          <mxGeometry y="40" width="160" height="60" as="geometry" />
        </mxCell>
        <mxCell id="NwuFL7YnjegX-JYwaqcO-40" value="" style="line;strokeWidth=1;fillColor=none;align=left;verticalAlign=middle;spacingTop=-1;spacingLeft=3;spacingRight=3;rotatable=0;labelPosition=right;points=[];portConstraint=eastwest;strokeColor=inherit;" parent="NwuFL7YnjegX-JYwaqcO-38" vertex="1">
          <mxGeometry y="100" width="160" height="8" as="geometry" />
        </mxCell>
        <mxCell id="NwuFL7YnjegX-JYwaqcO-42" value="&lt;b style=&quot;text-wrap-mode: nowrap;&quot;&gt;&amp;lt;&amp;lt;enumeration&amp;gt;&amp;gt;&lt;br&gt;BookingStatus&lt;/b&gt;" style="swimlane;fontStyle=1;align=center;verticalAlign=top;childLayout=stackLayout;horizontal=1;startSize=40;horizontalStack=0;resizeParent=1;resizeParentMax=0;resizeLast=0;collapsible=1;marginBottom=0;whiteSpace=wrap;html=1;" parent="1" vertex="1">
          <mxGeometry x="250" y="440" width="160" height="128" as="geometry" />
        </mxCell>
        <mxCell id="NwuFL7YnjegX-JYwaqcO-43" value="&lt;p style=&quot;text-wrap-mode: nowrap; margin: 0px 0px 0px 8px;&quot;&gt;+waitForConfirm&lt;/p&gt;&lt;p style=&quot;text-wrap-mode: nowrap; margin: 0px 0px 0px 8px;&quot;&gt;+confirmed&lt;/p&gt;&lt;p style=&quot;text-wrap-mode: nowrap; margin: 0px 0px 0px 8px;&quot;&gt;+cancelled&lt;/p&gt;&lt;p style=&quot;text-wrap-mode: nowrap; margin: 0px 0px 0px 8px;&quot;&gt;+haveCheckIn&lt;/p&gt;&lt;p style=&quot;text-wrap-mode: nowrap; margin: 0px 0px 0px 8px;&quot;&gt;+completed&lt;/p&gt;" style="text;strokeColor=none;fillColor=none;align=left;verticalAlign=top;spacingLeft=4;spacingRight=4;overflow=hidden;rotatable=0;points=[[0,0.5],[1,0.5]];portConstraint=eastwest;whiteSpace=wrap;html=1;" parent="NwuFL7YnjegX-JYwaqcO-42" vertex="1">
          <mxGeometry y="40" width="160" height="80" as="geometry" />
        </mxCell>
        <mxCell id="NwuFL7YnjegX-JYwaqcO-44" value="" style="line;strokeWidth=1;fillColor=none;align=left;verticalAlign=middle;spacingTop=-1;spacingLeft=3;spacingRight=3;rotatable=0;labelPosition=right;points=[];portConstraint=eastwest;strokeColor=inherit;" parent="NwuFL7YnjegX-JYwaqcO-42" vertex="1">
          <mxGeometry y="120" width="160" height="8" as="geometry" />
        </mxCell>
        <mxCell id="NwuFL7YnjegX-JYwaqcO-46" value="&lt;b style=&quot;text-wrap-mode: nowrap;&quot;&gt;Service&lt;/b&gt;" style="swimlane;fontStyle=1;align=center;verticalAlign=top;childLayout=stackLayout;horizontal=1;startSize=26;horizontalStack=0;resizeParent=1;resizeParentMax=0;resizeLast=0;collapsible=1;marginBottom=0;whiteSpace=wrap;html=1;" parent="1" vertex="1">
          <mxGeometry x="10" y="660" width="160" height="140" as="geometry" />
        </mxCell>
        <mxCell id="NwuFL7YnjegX-JYwaqcO-47" value="&lt;p style=&quot;text-wrap-mode: nowrap; margin: 0px 0px 0px 8px;&quot;&gt;-idService: int&lt;/p&gt;&lt;p style=&quot;text-wrap-mode: nowrap; margin: 0px 0px 0px 8px;&quot;&gt;-serviceName:String&lt;/p&gt;&lt;p style=&quot;text-wrap-mode: nowrap; margin: 0px 0px 0px 8px;&quot;&gt;-serviceType: ServiceType&lt;/p&gt;&lt;p style=&quot;text-wrap-mode: nowrap; margin: 0px 0px 0px 8px;&quot;&gt;-price:float&lt;/p&gt;&lt;p style=&quot;text-wrap-mode: nowrap; margin: 0px 0px 0px 8px;&quot;&gt;-describe:String&lt;/p&gt;" style="text;strokeColor=none;fillColor=none;align=left;verticalAlign=top;spacingLeft=4;spacingRight=4;overflow=hidden;rotatable=0;points=[[0,0.5],[1,0.5]];portConstraint=eastwest;whiteSpace=wrap;html=1;" parent="NwuFL7YnjegX-JYwaqcO-46" vertex="1">
          <mxGeometry y="26" width="160" height="74" as="geometry" />
        </mxCell>
        <mxCell id="NwuFL7YnjegX-JYwaqcO-48" value="" style="line;strokeWidth=1;fillColor=none;align=left;verticalAlign=middle;spacingTop=-1;spacingLeft=3;spacingRight=3;rotatable=0;labelPosition=right;points=[];portConstraint=eastwest;strokeColor=inherit;" parent="NwuFL7YnjegX-JYwaqcO-46" vertex="1">
          <mxGeometry y="100" width="160" height="8" as="geometry" />
        </mxCell>
        <mxCell id="NwuFL7YnjegX-JYwaqcO-49" value="+GetStatus()" style="text;strokeColor=none;fillColor=none;align=left;verticalAlign=top;spacingLeft=4;spacingRight=4;overflow=hidden;rotatable=0;points=[[0,0.5],[1,0.5]];portConstraint=eastwest;whiteSpace=wrap;html=1;" parent="NwuFL7YnjegX-JYwaqcO-46" vertex="1">
          <mxGeometry y="108" width="160" height="32" as="geometry" />
        </mxCell>
        <mxCell id="NwuFL7YnjegX-JYwaqcO-50" value="&lt;b style=&quot;text-wrap-mode: nowrap;&quot;&gt;ServiceType&lt;/b&gt;" style="swimlane;fontStyle=1;align=center;verticalAlign=top;childLayout=stackLayout;horizontal=1;startSize=26;horizontalStack=0;resizeParent=1;resizeParentMax=0;resizeLast=0;collapsible=1;marginBottom=0;whiteSpace=wrap;html=1;" parent="1" vertex="1">
          <mxGeometry x="280" y="680" width="160" height="120" as="geometry" />
        </mxCell>
        <mxCell id="NwuFL7YnjegX-JYwaqcO-51" value="&lt;p style=&quot;text-wrap-mode: nowrap; margin: 0px 0px 0px 8px;&quot;&gt;-idServiceType&lt;/p&gt;&lt;p style=&quot;text-wrap-mode: nowrap; margin: 0px 0px 0px 8px;&quot;&gt;-typeName:String&lt;/p&gt;&lt;p style=&quot;text-wrap-mode: nowrap; margin: 0px 0px 0px 8px;&quot;&gt;-describe:String&lt;/p&gt;" style="text;strokeColor=none;fillColor=none;align=left;verticalAlign=top;spacingLeft=4;spacingRight=4;overflow=hidden;rotatable=0;points=[[0,0.5],[1,0.5]];portConstraint=eastwest;whiteSpace=wrap;html=1;" parent="NwuFL7YnjegX-JYwaqcO-50" vertex="1">
          <mxGeometry y="26" width="160" height="54" as="geometry" />
        </mxCell>
        <mxCell id="NwuFL7YnjegX-JYwaqcO-52" value="" style="line;strokeWidth=1;fillColor=none;align=left;verticalAlign=middle;spacingTop=-1;spacingLeft=3;spacingRight=3;rotatable=0;labelPosition=right;points=[];portConstraint=eastwest;strokeColor=inherit;" parent="NwuFL7YnjegX-JYwaqcO-50" vertex="1">
          <mxGeometry y="80" width="160" height="8" as="geometry" />
        </mxCell>
        <mxCell id="NwuFL7YnjegX-JYwaqcO-53" value="+GetServiceType()" style="text;strokeColor=none;fillColor=none;align=left;verticalAlign=top;spacingLeft=4;spacingRight=4;overflow=hidden;rotatable=0;points=[[0,0.5],[1,0.5]];portConstraint=eastwest;whiteSpace=wrap;html=1;" parent="NwuFL7YnjegX-JYwaqcO-50" vertex="1">
          <mxGeometry y="88" width="160" height="32" as="geometry" />
        </mxCell>
        <mxCell id="NwuFL7YnjegX-JYwaqcO-54" value="&lt;b style=&quot;text-wrap-mode: nowrap;&quot;&gt;Invoice&lt;/b&gt;" style="swimlane;fontStyle=1;align=center;verticalAlign=top;childLayout=stackLayout;horizontal=1;startSize=26;horizontalStack=0;resizeParent=1;resizeParentMax=0;resizeLast=0;collapsible=1;marginBottom=0;whiteSpace=wrap;html=1;" parent="1" vertex="1">
          <mxGeometry x="-530" y="640" width="190" height="274" as="geometry" />
        </mxCell>
        <mxCell id="6xKqJXQ_MbYNUWaO7BNT-40" value="&lt;p style=&quot;text-wrap-mode: nowrap; margin: 0px 0px 0px 8px;&quot;&gt;-invoiceID: int&amp;nbsp;&amp;nbsp;&lt;/p&gt;&lt;p style=&quot;text-wrap-mode: nowrap; margin: 0px 0px 0px 8px;&quot;&gt;-invoiceDetail:InvoiceDetail&lt;/p&gt;&lt;p style=&quot;text-wrap-mode: nowrap; margin: 0px 0px 0px 8px;&quot;&gt;&lt;span style=&quot;background-color: transparent; color: light-dark(rgb(0, 0, 0), rgb(255, 255, 255));&quot;&gt;-discount:float&lt;/span&gt;&lt;/p&gt;&lt;p style=&quot;text-wrap-mode: nowrap; margin: 0px 0px 0px 8px;&quot;&gt;-tax:float&lt;/p&gt;&lt;p style=&quot;text-wrap-mode: nowrap; margin: 0px 0px 0px 8px;&quot;&gt;-finalAmount:float&lt;/p&gt;&lt;p style=&quot;text-wrap-mode: nowrap; margin: 0px 0px 0px 8px;&quot;&gt;-status: InvoiceStatus&lt;/p&gt;&lt;p style=&quot;text-wrap-mode: nowrap; margin: 0px 0px 0px 8px;&quot;&gt;-paymentType:PaymentType&lt;/p&gt;" style="text;strokeColor=none;fillColor=none;align=left;verticalAlign=top;spacingLeft=4;spacingRight=4;overflow=hidden;rotatable=0;points=[[0,0.5],[1,0.5]];portConstraint=eastwest;whiteSpace=wrap;html=1;" vertex="1" parent="NwuFL7YnjegX-JYwaqcO-54">
          <mxGeometry y="26" width="190" height="104" as="geometry" />
        </mxCell>
        <mxCell id="NwuFL7YnjegX-JYwaqcO-55" value="&lt;p style=&quot;text-wrap-mode: nowrap; margin: 0px 0px 0px 8px;&quot;&gt;-invoiceID: int&amp;nbsp;&amp;nbsp;&lt;/p&gt;&lt;p style=&quot;text-wrap-mode: nowrap; margin: 0px 0px 0px 8px;&quot;&gt;-invoiceDetail:InvoiceDetail&lt;/p&gt;&lt;p style=&quot;text-wrap-mode: nowrap; margin: 0px 0px 0px 8px;&quot;&gt;&lt;span style=&quot;background-color: transparent; color: light-dark(rgb(0, 0, 0), rgb(255, 255, 255));&quot;&gt;-discount:float&lt;/span&gt;&lt;/p&gt;&lt;p style=&quot;text-wrap-mode: nowrap; margin: 0px 0px 0px 8px;&quot;&gt;-tax:float&lt;/p&gt;&lt;p style=&quot;text-wrap-mode: nowrap; margin: 0px 0px 0px 8px;&quot;&gt;-finalAmount:float&lt;/p&gt;&lt;p style=&quot;text-wrap-mode: nowrap; margin: 0px 0px 0px 8px;&quot;&gt;-status: InvoiceStatus&lt;/p&gt;&lt;p style=&quot;text-wrap-mode: nowrap; margin: 0px 0px 0px 8px;&quot;&gt;-paymentType:PaymentType&lt;/p&gt;" style="text;strokeColor=none;fillColor=none;align=left;verticalAlign=top;spacingLeft=4;spacingRight=4;overflow=hidden;rotatable=0;points=[[0,0.5],[1,0.5]];portConstraint=eastwest;whiteSpace=wrap;html=1;" parent="NwuFL7YnjegX-JYwaqcO-54" vertex="1">
          <mxGeometry y="130" width="190" height="104" as="geometry" />
        </mxCell>
        <mxCell id="NwuFL7YnjegX-JYwaqcO-56" value="" style="line;strokeWidth=1;fillColor=none;align=left;verticalAlign=middle;spacingTop=-1;spacingLeft=3;spacingRight=3;rotatable=0;labelPosition=right;points=[];portConstraint=eastwest;strokeColor=inherit;" parent="NwuFL7YnjegX-JYwaqcO-54" vertex="1">
          <mxGeometry y="234" width="190" height="8" as="geometry" />
        </mxCell>
        <mxCell id="NwuFL7YnjegX-JYwaqcO-57" value="+GetStatus()" style="text;strokeColor=none;fillColor=none;align=left;verticalAlign=top;spacingLeft=4;spacingRight=4;overflow=hidden;rotatable=0;points=[[0,0.5],[1,0.5]];portConstraint=eastwest;whiteSpace=wrap;html=1;" parent="NwuFL7YnjegX-JYwaqcO-54" vertex="1">
          <mxGeometry y="242" width="190" height="32" as="geometry" />
        </mxCell>
        <mxCell id="NwuFL7YnjegX-JYwaqcO-58" value="&lt;b style=&quot;text-wrap-mode: nowrap;&quot;&gt;InvoiceDetail&lt;/b&gt;" style="swimlane;fontStyle=1;align=center;verticalAlign=top;childLayout=stackLayout;horizontal=1;startSize=26;horizontalStack=0;resizeParent=1;resizeParentMax=0;resizeLast=0;collapsible=1;marginBottom=0;whiteSpace=wrap;html=1;" parent="1" vertex="1">
          <mxGeometry x="-270" y="680" width="210" height="110" as="geometry" />
        </mxCell>
        <mxCell id="NwuFL7YnjegX-JYwaqcO-59" value="&lt;p style=&quot;text-wrap-mode: nowrap; margin: 0px 0px 0px 8px;&quot;&gt;&lt;span style=&quot;background-color: transparent; color: light-dark(rgb(0, 0, 0), rgb(255, 255, 255));&quot;&gt;-bookingRoom:BookingRoom&lt;/span&gt;&lt;/p&gt;&lt;p style=&quot;text-wrap-mode: nowrap; margin: 0px 0px 0px 8px;&quot;&gt;-serviceDate Date&lt;/p&gt;" style="text;strokeColor=none;fillColor=none;align=left;verticalAlign=top;spacingLeft=4;spacingRight=4;overflow=hidden;rotatable=0;points=[[0,0.5],[1,0.5]];portConstraint=eastwest;whiteSpace=wrap;html=1;" parent="NwuFL7YnjegX-JYwaqcO-58" vertex="1">
          <mxGeometry y="26" width="210" height="44" as="geometry" />
        </mxCell>
        <mxCell id="NwuFL7YnjegX-JYwaqcO-60" value="" style="line;strokeWidth=1;fillColor=none;align=left;verticalAlign=middle;spacingTop=-1;spacingLeft=3;spacingRight=3;rotatable=0;labelPosition=right;points=[];portConstraint=eastwest;strokeColor=inherit;" parent="NwuFL7YnjegX-JYwaqcO-58" vertex="1">
          <mxGeometry y="70" width="210" height="8" as="geometry" />
        </mxCell>
        <mxCell id="NwuFL7YnjegX-JYwaqcO-61" value="+totalAmount()" style="text;strokeColor=none;fillColor=none;align=left;verticalAlign=top;spacingLeft=4;spacingRight=4;overflow=hidden;rotatable=0;points=[[0,0.5],[1,0.5]];portConstraint=eastwest;whiteSpace=wrap;html=1;" parent="NwuFL7YnjegX-JYwaqcO-58" vertex="1">
          <mxGeometry y="78" width="210" height="32" as="geometry" />
        </mxCell>
        <mxCell id="NwuFL7YnjegX-JYwaqcO-62" value="&lt;div&gt;&lt;b style=&quot;text-wrap-mode: nowrap;&quot;&gt;FeedBack&lt;/b&gt;&lt;/div&gt;" style="swimlane;fontStyle=1;align=center;verticalAlign=top;childLayout=stackLayout;horizontal=1;startSize=26;horizontalStack=0;resizeParent=1;resizeParentMax=0;resizeLast=0;collapsible=1;marginBottom=0;whiteSpace=wrap;html=1;" parent="1" vertex="1">
          <mxGeometry x="-340" y="165" width="190" height="170" as="geometry" />
        </mxCell>
        <mxCell id="NwuFL7YnjegX-JYwaqcO-63" value="&lt;p style=&quot;text-wrap-mode: nowrap; margin: 0px 0px 0px 8px;&quot;&gt;-Room: Room&lt;/p&gt;&lt;p style=&quot;text-wrap-mode: nowrap; margin: 0px 0px 0px 8px;&quot;&gt;-User: UserAccount&lt;/p&gt;&lt;p style=&quot;text-wrap-mode: nowrap; margin: 0px 0px 0px 8px;&quot;&gt;-Rate:int&lt;/p&gt;&lt;p style=&quot;text-wrap-mode: nowrap; margin: 0px 0px 0px 8px;&quot;&gt;-comment:String&lt;/p&gt;" style="text;strokeColor=none;fillColor=none;align=left;verticalAlign=top;spacingLeft=4;spacingRight=4;overflow=hidden;rotatable=0;points=[[0,0.5],[1,0.5]];portConstraint=eastwest;whiteSpace=wrap;html=1;" parent="NwuFL7YnjegX-JYwaqcO-62" vertex="1">
          <mxGeometry y="26" width="190" height="74" as="geometry" />
        </mxCell>
        <mxCell id="NwuFL7YnjegX-JYwaqcO-64" value="" style="line;strokeWidth=1;fillColor=none;align=left;verticalAlign=middle;spacingTop=-1;spacingLeft=3;spacingRight=3;rotatable=0;labelPosition=right;points=[];portConstraint=eastwest;strokeColor=inherit;" parent="NwuFL7YnjegX-JYwaqcO-62" vertex="1">
          <mxGeometry y="100" width="190" height="8" as="geometry" />
        </mxCell>
        <mxCell id="NwuFL7YnjegX-JYwaqcO-65" value="+Create()&lt;div&gt;+Edit()&lt;/div&gt;&lt;div&gt;+Delete()&lt;/div&gt;" style="text;strokeColor=none;fillColor=none;align=left;verticalAlign=top;spacingLeft=4;spacingRight=4;overflow=hidden;rotatable=0;points=[[0,0.5],[1,0.5]];portConstraint=eastwest;whiteSpace=wrap;html=1;" parent="NwuFL7YnjegX-JYwaqcO-62" vertex="1">
          <mxGeometry y="108" width="190" height="62" as="geometry" />
        </mxCell>
        <mxCell id="NwuFL7YnjegX-JYwaqcO-66" value="&lt;b style=&quot;text-wrap-mode: nowrap;&quot;&gt;&amp;lt;&amp;lt;enumeration&amp;gt;&amp;gt;&lt;br&gt;InvoiceStatus&lt;/b&gt;" style="swimlane;fontStyle=1;align=center;verticalAlign=top;childLayout=stackLayout;horizontal=1;startSize=40;horizontalStack=0;resizeParent=1;resizeParentMax=0;resizeLast=0;collapsible=1;marginBottom=0;whiteSpace=wrap;html=1;" parent="1" vertex="1">
          <mxGeometry x="-510" y="990" width="160" height="88" as="geometry" />
        </mxCell>
        <mxCell id="NwuFL7YnjegX-JYwaqcO-67" value="&lt;p style=&quot;text-wrap-mode: nowrap; margin: 0px 0px 0px 8px;&quot;&gt;+paid&lt;/p&gt;&lt;p style=&quot;text-wrap-mode: nowrap; margin: 0px 0px 0px 8px;&quot;&gt;+unPaid&lt;/p&gt;" style="text;strokeColor=none;fillColor=none;align=left;verticalAlign=top;spacingLeft=4;spacingRight=4;overflow=hidden;rotatable=0;points=[[0,0.5],[1,0.5]];portConstraint=eastwest;whiteSpace=wrap;html=1;" parent="NwuFL7YnjegX-JYwaqcO-66" vertex="1">
          <mxGeometry y="40" width="160" height="40" as="geometry" />
        </mxCell>
        <mxCell id="NwuFL7YnjegX-JYwaqcO-68" value="" style="line;strokeWidth=1;fillColor=none;align=left;verticalAlign=middle;spacingTop=-1;spacingLeft=3;spacingRight=3;rotatable=0;labelPosition=right;points=[];portConstraint=eastwest;strokeColor=inherit;" parent="NwuFL7YnjegX-JYwaqcO-66" vertex="1">
          <mxGeometry y="80" width="160" height="8" as="geometry" />
        </mxCell>
        <mxCell id="NwuFL7YnjegX-JYwaqcO-69" value="&lt;b style=&quot;text-wrap-mode: nowrap;&quot;&gt;&amp;lt;&amp;lt;enumeration&amp;gt;&amp;gt;&lt;br&gt;PaymentType&lt;/b&gt;" style="swimlane;fontStyle=1;align=center;verticalAlign=top;childLayout=stackLayout;horizontal=1;startSize=40;horizontalStack=0;resizeParent=1;resizeParentMax=0;resizeLast=0;collapsible=1;marginBottom=0;whiteSpace=wrap;html=1;" parent="1" vertex="1">
          <mxGeometry x="-780" y="750" width="160" height="88" as="geometry" />
        </mxCell>
        <mxCell id="NwuFL7YnjegX-JYwaqcO-70" value="&lt;p style=&quot;text-wrap-mode: nowrap; margin: 0px 0px 0px 8px;&quot;&gt;+Cash&lt;/p&gt;&lt;p style=&quot;text-wrap-mode: nowrap; margin: 0px 0px 0px 8px;&quot;&gt;+MoMo&lt;/p&gt;" style="text;strokeColor=none;fillColor=none;align=left;verticalAlign=top;spacingLeft=4;spacingRight=4;overflow=hidden;rotatable=0;points=[[0,0.5],[1,0.5]];portConstraint=eastwest;whiteSpace=wrap;html=1;" parent="NwuFL7YnjegX-JYwaqcO-69" vertex="1">
          <mxGeometry y="40" width="160" height="40" as="geometry" />
        </mxCell>
        <mxCell id="NwuFL7YnjegX-JYwaqcO-71" value="" style="line;strokeWidth=1;fillColor=none;align=left;verticalAlign=middle;spacingTop=-1;spacingLeft=3;spacingRight=3;rotatable=0;labelPosition=right;points=[];portConstraint=eastwest;strokeColor=inherit;" parent="NwuFL7YnjegX-JYwaqcO-69" vertex="1">
          <mxGeometry y="80" width="160" height="8" as="geometry" />
        </mxCell>
        <mxCell id="6xKqJXQ_MbYNUWaO7BNT-1" value="" style="endArrow=block;endSize=16;endFill=0;html=1;rounded=0;exitX=1.015;exitY=0.121;exitDx=0;exitDy=0;exitPerimeter=0;entryX=0.009;entryY=-0.019;entryDx=0;entryDy=0;entryPerimeter=0;" edge="1" parent="1" source="NwuFL7YnjegX-JYwaqcO-21" target="NwuFL7YnjegX-JYwaqcO-17">
          <mxGeometry width="160" relative="1" as="geometry">
            <mxPoint x="-610" y="453" as="sourcePoint" />
            <mxPoint x="-450" y="453" as="targetPoint" />
          </mxGeometry>
        </mxCell>
        <mxCell id="6xKqJXQ_MbYNUWaO7BNT-2" value="" style="endArrow=block;endSize=16;endFill=0;html=1;rounded=0;exitX=1;exitY=0.5;exitDx=0;exitDy=0;entryX=0.004;entryY=0.091;entryDx=0;entryDy=0;entryPerimeter=0;" edge="1" parent="1" source="NwuFL7YnjegX-JYwaqcO-27" target="NwuFL7YnjegX-JYwaqcO-19">
          <mxGeometry width="160" relative="1" as="geometry">
            <mxPoint x="-493" y="389" as="sourcePoint" />
            <mxPoint x="-389" y="443" as="targetPoint" />
          </mxGeometry>
        </mxCell>
        <mxCell id="6xKqJXQ_MbYNUWaO7BNT-3" style="rounded=0;orthogonalLoop=1;jettySize=auto;html=1;exitX=1;exitY=0.5;exitDx=0;exitDy=0;entryX=0;entryY=0.5;entryDx=0;entryDy=0;endArrow=none;startFill=0;" edge="1" parent="1" source="NwuFL7YnjegX-JYwaqcO-17" target="NwuFL7YnjegX-JYwaqcO-30">
          <mxGeometry relative="1" as="geometry" />
        </mxCell>
        <mxCell id="6xKqJXQ_MbYNUWaO7BNT-4" value="1" style="edgeLabel;html=1;align=center;verticalAlign=middle;resizable=0;points=[];" vertex="1" connectable="0" parent="6xKqJXQ_MbYNUWaO7BNT-3">
          <mxGeometry x="-0.6544" y="-1" relative="1" as="geometry">
            <mxPoint x="-5" y="12" as="offset" />
          </mxGeometry>
        </mxCell>
        <mxCell id="6xKqJXQ_MbYNUWaO7BNT-5" value="1" style="edgeLabel;html=1;align=center;verticalAlign=middle;resizable=0;points=[];" vertex="1" connectable="0" parent="6xKqJXQ_MbYNUWaO7BNT-3">
          <mxGeometry x="0.6088" y="-2" relative="1" as="geometry">
            <mxPoint y="11" as="offset" />
          </mxGeometry>
        </mxCell>
        <mxCell id="6xKqJXQ_MbYNUWaO7BNT-7" value="" style="endArrow=diamondThin;endFill=0;endSize=24;html=1;rounded=0;entryX=1;entryY=0.5;entryDx=0;entryDy=0;exitX=0;exitY=0.5;exitDx=0;exitDy=0;" edge="1" parent="1" source="NwuFL7YnjegX-JYwaqcO-13" target="NwuFL7YnjegX-JYwaqcO-9">
          <mxGeometry width="160" relative="1" as="geometry">
            <mxPoint x="-140" y="140" as="sourcePoint" />
            <mxPoint x="20" y="140" as="targetPoint" />
          </mxGeometry>
        </mxCell>
        <mxCell id="6xKqJXQ_MbYNUWaO7BNT-17" value="1" style="edgeLabel;html=1;align=center;verticalAlign=middle;resizable=0;points=[];" vertex="1" connectable="0" parent="6xKqJXQ_MbYNUWaO7BNT-7">
          <mxGeometry x="-0.6196" y="2" relative="1" as="geometry">
            <mxPoint x="-116" y="-132" as="offset" />
          </mxGeometry>
        </mxCell>
        <mxCell id="6xKqJXQ_MbYNUWaO7BNT-21" value="1..*" style="edgeLabel;html=1;align=center;verticalAlign=middle;resizable=0;points=[];" vertex="1" connectable="0" parent="6xKqJXQ_MbYNUWaO7BNT-7">
          <mxGeometry x="0.5633" y="1" relative="1" as="geometry">
            <mxPoint x="127" y="99" as="offset" />
          </mxGeometry>
        </mxCell>
        <mxCell id="6xKqJXQ_MbYNUWaO7BNT-8" value="" style="endArrow=diamondThin;endFill=1;endSize=24;html=1;rounded=0;entryX=1.005;entryY=0.822;entryDx=0;entryDy=0;entryPerimeter=0;exitX=0;exitY=1;exitDx=0;exitDy=0;exitPerimeter=0;" edge="1" parent="1" source="NwuFL7YnjegX-JYwaqcO-59" target="6xKqJXQ_MbYNUWaO7BNT-40">
          <mxGeometry width="160" relative="1" as="geometry">
            <mxPoint x="-260" y="780" as="sourcePoint" />
            <mxPoint x="-360" y="719" as="targetPoint" />
          </mxGeometry>
        </mxCell>
        <mxCell id="6xKqJXQ_MbYNUWaO7BNT-15" value="1" style="edgeLabel;html=1;align=center;verticalAlign=middle;resizable=0;points=[];" vertex="1" connectable="0" parent="6xKqJXQ_MbYNUWaO7BNT-8">
          <mxGeometry x="0.0624" y="-1" relative="1" as="geometry">
            <mxPoint x="32" y="-10" as="offset" />
          </mxGeometry>
        </mxCell>
        <mxCell id="6xKqJXQ_MbYNUWaO7BNT-16" value="1" style="edgeLabel;html=1;align=center;verticalAlign=middle;resizable=0;points=[];" vertex="1" connectable="0" parent="6xKqJXQ_MbYNUWaO7BNT-8">
          <mxGeometry x="-0.1871" y="1" relative="1" as="geometry">
            <mxPoint x="-32" y="-22" as="offset" />
          </mxGeometry>
        </mxCell>
        <mxCell id="6xKqJXQ_MbYNUWaO7BNT-9" value="" style="endArrow=diamondThin;endFill=0;endSize=24;html=1;rounded=0;entryX=0.5;entryY=0;entryDx=0;entryDy=0;exitX=0.5;exitY=1;exitDx=0;exitDy=0;exitPerimeter=0;" edge="1" parent="1" source="NwuFL7YnjegX-JYwaqcO-15" target="NwuFL7YnjegX-JYwaqcO-33">
          <mxGeometry width="160" relative="1" as="geometry">
            <mxPoint x="20" y="253" as="sourcePoint" />
            <mxPoint x="-100" y="253" as="targetPoint" />
          </mxGeometry>
        </mxCell>
        <mxCell id="6xKqJXQ_MbYNUWaO7BNT-33" value="1" style="edgeLabel;html=1;align=center;verticalAlign=middle;resizable=0;points=[];" vertex="1" connectable="0" parent="6xKqJXQ_MbYNUWaO7BNT-9">
          <mxGeometry x="0.0858" y="-1" relative="1" as="geometry">
            <mxPoint x="11" y="11" as="offset" />
          </mxGeometry>
        </mxCell>
        <mxCell id="6xKqJXQ_MbYNUWaO7BNT-34" value="1..*" style="edgeLabel;html=1;align=center;verticalAlign=middle;resizable=0;points=[];" vertex="1" connectable="0" parent="6xKqJXQ_MbYNUWaO7BNT-9">
          <mxGeometry x="-0.6495" y="3" relative="1" as="geometry">
            <mxPoint x="17" y="-4" as="offset" />
          </mxGeometry>
        </mxCell>
        <mxCell id="6xKqJXQ_MbYNUWaO7BNT-10" value="" style="endArrow=diamondThin;endFill=0;endSize=24;html=1;rounded=0;entryX=0;entryY=0.5;entryDx=0;entryDy=0;exitX=1;exitY=0.614;exitDx=0;exitDy=0;exitPerimeter=0;" edge="1" parent="1" source="NwuFL7YnjegX-JYwaqcO-47" target="NwuFL7YnjegX-JYwaqcO-51">
          <mxGeometry width="160" relative="1" as="geometry">
            <mxPoint x="280" y="780" as="sourcePoint" />
            <mxPoint x="160" y="780" as="targetPoint" />
          </mxGeometry>
        </mxCell>
        <mxCell id="6xKqJXQ_MbYNUWaO7BNT-24" value="1" style="edgeLabel;html=1;align=center;verticalAlign=middle;resizable=0;points=[];" vertex="1" connectable="0" parent="6xKqJXQ_MbYNUWaO7BNT-10">
          <mxGeometry x="-0.3214" y="2" relative="1" as="geometry">
            <mxPoint x="-28" y="-10" as="offset" />
          </mxGeometry>
        </mxCell>
        <mxCell id="6xKqJXQ_MbYNUWaO7BNT-25" value="1..*" style="edgeLabel;html=1;align=center;verticalAlign=middle;resizable=0;points=[];" vertex="1" connectable="0" parent="6xKqJXQ_MbYNUWaO7BNT-10">
          <mxGeometry x="-0.0473" y="1" relative="1" as="geometry">
            <mxPoint x="17" y="-11" as="offset" />
          </mxGeometry>
        </mxCell>
        <mxCell id="6xKqJXQ_MbYNUWaO7BNT-11" style="rounded=0;orthogonalLoop=1;jettySize=auto;html=1;exitX=0.014;exitY=0.094;exitDx=0;exitDy=0;entryX=1;entryY=0.5;entryDx=0;entryDy=0;endArrow=none;startFill=0;exitPerimeter=0;" edge="1" parent="1" source="NwuFL7YnjegX-JYwaqcO-43" target="NwuFL7YnjegX-JYwaqcO-34">
          <mxGeometry relative="1" as="geometry" />
        </mxCell>
        <mxCell id="6xKqJXQ_MbYNUWaO7BNT-26" value="1" style="edgeLabel;html=1;align=center;verticalAlign=middle;resizable=0;points=[];" vertex="1" connectable="0" parent="6xKqJXQ_MbYNUWaO7BNT-11">
          <mxGeometry x="0.3242" y="-3" relative="1" as="geometry">
            <mxPoint x="-18" y="-5" as="offset" />
          </mxGeometry>
        </mxCell>
        <mxCell id="6xKqJXQ_MbYNUWaO7BNT-27" value="1" style="edgeLabel;html=1;align=center;verticalAlign=middle;resizable=0;points=[];" vertex="1" connectable="0" parent="6xKqJXQ_MbYNUWaO7BNT-11">
          <mxGeometry x="-0.2772" y="3" relative="1" as="geometry">
            <mxPoint x="17" y="-11" as="offset" />
          </mxGeometry>
        </mxCell>
        <mxCell id="6xKqJXQ_MbYNUWaO7BNT-12" style="rounded=0;orthogonalLoop=1;jettySize=auto;html=1;exitX=0.5;exitY=0;exitDx=0;exitDy=0;endArrow=none;startFill=0;entryX=0.521;entryY=1.007;entryDx=0;entryDy=0;entryPerimeter=0;" edge="1" parent="1" source="NwuFL7YnjegX-JYwaqcO-66" target="NwuFL7YnjegX-JYwaqcO-57">
          <mxGeometry relative="1" as="geometry">
            <mxPoint x="-1005" y="1082" as="sourcePoint" />
            <mxPoint x="-250" y="926" as="targetPoint" />
          </mxGeometry>
        </mxCell>
        <mxCell id="6xKqJXQ_MbYNUWaO7BNT-60" value="1" style="edgeLabel;html=1;align=center;verticalAlign=middle;resizable=0;points=[];" vertex="1" connectable="0" parent="6xKqJXQ_MbYNUWaO7BNT-12">
          <mxGeometry x="0.6996" y="1" relative="1" as="geometry">
            <mxPoint x="11" y="-1" as="offset" />
          </mxGeometry>
        </mxCell>
        <mxCell id="6xKqJXQ_MbYNUWaO7BNT-61" value="1" style="edgeLabel;html=1;align=center;verticalAlign=middle;resizable=0;points=[];" vertex="1" connectable="0" parent="6xKqJXQ_MbYNUWaO7BNT-12">
          <mxGeometry x="-0.5967" relative="1" as="geometry">
            <mxPoint x="10" as="offset" />
          </mxGeometry>
        </mxCell>
        <mxCell id="6xKqJXQ_MbYNUWaO7BNT-13" style="rounded=0;orthogonalLoop=1;jettySize=auto;html=1;exitX=1.008;exitY=0.008;exitDx=0;exitDy=0;endArrow=none;startFill=0;exitPerimeter=0;entryX=-0.008;entryY=0.225;entryDx=0;entryDy=0;entryPerimeter=0;" edge="1" parent="1" source="NwuFL7YnjegX-JYwaqcO-70" target="NwuFL7YnjegX-JYwaqcO-55">
          <mxGeometry relative="1" as="geometry">
            <mxPoint x="-445" y="1050" as="sourcePoint" />
            <mxPoint x="-341" y="890" as="targetPoint" />
          </mxGeometry>
        </mxCell>
        <mxCell id="6xKqJXQ_MbYNUWaO7BNT-57" value="1" style="edgeLabel;html=1;align=center;verticalAlign=middle;resizable=0;points=[];" vertex="1" connectable="0" parent="6xKqJXQ_MbYNUWaO7BNT-13">
          <mxGeometry x="-0.6618" y="-2" relative="1" as="geometry">
            <mxPoint x="-6" y="-13" as="offset" />
          </mxGeometry>
        </mxCell>
        <mxCell id="6xKqJXQ_MbYNUWaO7BNT-59" value="1" style="edgeLabel;html=1;align=center;verticalAlign=middle;resizable=0;points=[];" vertex="1" connectable="0" parent="6xKqJXQ_MbYNUWaO7BNT-13">
          <mxGeometry x="-0.0198" y="-1" relative="1" as="geometry">
            <mxPoint x="41" y="-11" as="offset" />
          </mxGeometry>
        </mxCell>
        <mxCell id="6xKqJXQ_MbYNUWaO7BNT-14" style="rounded=0;orthogonalLoop=1;jettySize=auto;html=1;exitX=-0.004;exitY=0.205;exitDx=0;exitDy=0;entryX=1;entryY=0.5;entryDx=0;entryDy=0;endArrow=none;startFill=0;exitPerimeter=0;" edge="1" parent="1" source="NwuFL7YnjegX-JYwaqcO-39" target="NwuFL7YnjegX-JYwaqcO-13">
          <mxGeometry relative="1" as="geometry">
            <mxPoint x="590" y="455" as="sourcePoint" />
            <mxPoint x="495" y="453" as="targetPoint" />
          </mxGeometry>
        </mxCell>
        <mxCell id="6xKqJXQ_MbYNUWaO7BNT-22" value="1" style="edgeLabel;html=1;align=center;verticalAlign=middle;resizable=0;points=[];" vertex="1" connectable="0" parent="6xKqJXQ_MbYNUWaO7BNT-14">
          <mxGeometry x="0.4916" y="-1" relative="1" as="geometry">
            <mxPoint x="-21" y="-13" as="offset" />
          </mxGeometry>
        </mxCell>
        <mxCell id="6xKqJXQ_MbYNUWaO7BNT-23" value="1" style="edgeLabel;html=1;align=center;verticalAlign=middle;resizable=0;points=[];" vertex="1" connectable="0" parent="6xKqJXQ_MbYNUWaO7BNT-14">
          <mxGeometry x="-0.2295" y="1" relative="1" as="geometry">
            <mxPoint x="37" y="-14" as="offset" />
          </mxGeometry>
        </mxCell>
        <mxCell id="6xKqJXQ_MbYNUWaO7BNT-35" value="" style="endArrow=diamondThin;endFill=0;endSize=24;html=1;rounded=0;exitX=0.5;exitY=0;exitDx=0;exitDy=0;" edge="1" parent="1" source="NwuFL7YnjegX-JYwaqcO-46">
          <mxGeometry width="160" relative="1" as="geometry">
            <mxPoint x="100" y="340" as="sourcePoint" />
            <mxPoint x="90" y="582" as="targetPoint" />
          </mxGeometry>
        </mxCell>
        <mxCell id="6xKqJXQ_MbYNUWaO7BNT-36" value="1" style="edgeLabel;html=1;align=center;verticalAlign=middle;resizable=0;points=[];" vertex="1" connectable="0" parent="6xKqJXQ_MbYNUWaO7BNT-35">
          <mxGeometry x="0.0858" y="-1" relative="1" as="geometry">
            <mxPoint x="9" y="-8" as="offset" />
          </mxGeometry>
        </mxCell>
        <mxCell id="6xKqJXQ_MbYNUWaO7BNT-37" value="1..*" style="edgeLabel;html=1;align=center;verticalAlign=middle;resizable=0;points=[];" vertex="1" connectable="0" parent="6xKqJXQ_MbYNUWaO7BNT-35">
          <mxGeometry x="-0.6495" y="3" relative="1" as="geometry">
            <mxPoint x="17" y="4" as="offset" />
          </mxGeometry>
        </mxCell>
        <mxCell id="6xKqJXQ_MbYNUWaO7BNT-48" value="" style="endArrow=diamondThin;endFill=0;endSize=24;html=1;rounded=0;entryX=0.526;entryY=0;entryDx=0;entryDy=0;entryPerimeter=0;" edge="1" parent="1" target="NwuFL7YnjegX-JYwaqcO-29">
          <mxGeometry width="160" relative="1" as="geometry">
            <mxPoint x="-240" y="339" as="sourcePoint" />
            <mxPoint x="-250" y="428" as="targetPoint" />
          </mxGeometry>
        </mxCell>
        <mxCell id="6xKqJXQ_MbYNUWaO7BNT-49" value="1" style="edgeLabel;html=1;align=center;verticalAlign=middle;resizable=0;points=[];" vertex="1" connectable="0" parent="6xKqJXQ_MbYNUWaO7BNT-48">
          <mxGeometry x="0.0858" y="-1" relative="1" as="geometry">
            <mxPoint x="9" y="13" as="offset" />
          </mxGeometry>
        </mxCell>
        <mxCell id="6xKqJXQ_MbYNUWaO7BNT-50" value="0..*" style="edgeLabel;html=1;align=center;verticalAlign=middle;resizable=0;points=[];" vertex="1" connectable="0" parent="6xKqJXQ_MbYNUWaO7BNT-48">
          <mxGeometry x="-0.6495" y="3" relative="1" as="geometry">
            <mxPoint x="7" y="-5" as="offset" />
          </mxGeometry>
        </mxCell>
        <mxCell id="6xKqJXQ_MbYNUWaO7BNT-51" value="" style="endArrow=diamondThin;endFill=0;endSize=24;html=1;rounded=0;entryX=1.013;entryY=0.358;entryDx=0;entryDy=0;entryPerimeter=0;exitX=0;exitY=0.5;exitDx=0;exitDy=0;" edge="1" parent="1" source="NwuFL7YnjegX-JYwaqcO-34" target="NwuFL7YnjegX-JYwaqcO-30">
          <mxGeometry width="160" relative="1" as="geometry">
            <mxPoint x="-230" y="349" as="sourcePoint" />
            <mxPoint x="-230" y="438" as="targetPoint" />
          </mxGeometry>
        </mxCell>
        <mxCell id="6xKqJXQ_MbYNUWaO7BNT-52" value="1" style="edgeLabel;html=1;align=center;verticalAlign=middle;resizable=0;points=[];" vertex="1" connectable="0" parent="6xKqJXQ_MbYNUWaO7BNT-51">
          <mxGeometry x="0.0858" y="-1" relative="1" as="geometry">
            <mxPoint x="-45" y="13" as="offset" />
          </mxGeometry>
        </mxCell>
        <mxCell id="6xKqJXQ_MbYNUWaO7BNT-53" value="0..*" style="edgeLabel;html=1;align=center;verticalAlign=middle;resizable=0;points=[];" vertex="1" connectable="0" parent="6xKqJXQ_MbYNUWaO7BNT-51">
          <mxGeometry x="-0.6495" y="3" relative="1" as="geometry">
            <mxPoint x="7" y="9" as="offset" />
          </mxGeometry>
        </mxCell>
        <mxCell id="6xKqJXQ_MbYNUWaO7BNT-54" value="" style="endArrow=diamondThin;endFill=0;endSize=24;html=1;rounded=0;entryX=-0.016;entryY=0.813;entryDx=0;entryDy=0;entryPerimeter=0;" edge="1" parent="1" target="NwuFL7YnjegX-JYwaqcO-13">
          <mxGeometry width="160" relative="1" as="geometry">
            <mxPoint x="-152" y="271" as="sourcePoint" />
            <mxPoint x="-230" y="438" as="targetPoint" />
          </mxGeometry>
        </mxCell>
        <mxCell id="6xKqJXQ_MbYNUWaO7BNT-55" value="1" style="edgeLabel;html=1;align=center;verticalAlign=middle;resizable=0;points=[];" vertex="1" connectable="0" parent="6xKqJXQ_MbYNUWaO7BNT-54">
          <mxGeometry x="0.0858" y="-1" relative="1" as="geometry">
            <mxPoint x="45" y="-13" as="offset" />
          </mxGeometry>
        </mxCell>
        <mxCell id="6xKqJXQ_MbYNUWaO7BNT-56" value="0..*" style="edgeLabel;html=1;align=center;verticalAlign=middle;resizable=0;points=[];" vertex="1" connectable="0" parent="6xKqJXQ_MbYNUWaO7BNT-54">
          <mxGeometry x="-0.6495" y="3" relative="1" as="geometry">
            <mxPoint x="-16" y="-5" as="offset" />
          </mxGeometry>
        </mxCell>
        <mxCell id="6xKqJXQ_MbYNUWaO7BNT-64" style="rounded=0;orthogonalLoop=1;jettySize=auto;html=1;exitX=1;exitY=0;exitDx=0;exitDy=0;entryX=0;entryY=1;entryDx=0;entryDy=0;entryPerimeter=0;endArrow=none;startFill=0;" edge="1" parent="1" source="NwuFL7YnjegX-JYwaqcO-58" target="NwuFL7YnjegX-JYwaqcO-36">
          <mxGeometry relative="1" as="geometry" />
        </mxCell>
        <mxCell id="6xKqJXQ_MbYNUWaO7BNT-65" value="1" style="edgeLabel;html=1;align=center;verticalAlign=middle;resizable=0;points=[];" vertex="1" connectable="0" parent="6xKqJXQ_MbYNUWaO7BNT-64">
          <mxGeometry x="0.0815" y="1" relative="1" as="geometry">
            <mxPoint x="23" y="-45" as="offset" />
          </mxGeometry>
        </mxCell>
        <mxCell id="6xKqJXQ_MbYNUWaO7BNT-66" value="0..1" style="edgeLabel;html=1;align=center;verticalAlign=middle;resizable=0;points=[];" vertex="1" connectable="0" parent="6xKqJXQ_MbYNUWaO7BNT-64">
          <mxGeometry x="-0.3354" relative="1" as="geometry">
            <mxPoint x="-33" y="13" as="offset" />
          </mxGeometry>
        </mxCell>
      </root>
    </mxGraphModel>
  </diagram>
</mxfile>
